<?xml version="1.0" encoding="iso-8859-1"?>
<!-- Generator: Adobe Illustrator 21.1.0, SVG Export Plug-In . SVG Version: 6.00 Build 0)  -->
<svg version="1.1" id="Layer_1" xmlns="http://www.w3.org/2000/svg" xmlns:xlink="http://www.w3.org/1999/xlink" x="0px" y="0px"
	 viewBox="0 0 24 24" enable-background="new 0 0 24 24" xml:space="preserve">
<g>
	<path fill="#FDD2B0" d="M12,2c-1.2519531,0-7.5,0.409668-7.5,8.5c0,4.043457,0.4580078,6.4819336,1.3613281,7.2470703
		c0.0654297,0.0551758,0.1289063,0.0986328,0.1904297,0.1328125c0.0703125,0.4628906,0.2041016,1.3193359,0.2861328,1.6791992
		C6.8613281,21.8833008,9.5605469,24,12,24s5.1386719-2.1166992,5.6621094-4.4399414
		c0.0820313-0.3608398,0.2158203-1.2172852,0.2861328-1.6801758c0.0615234-0.0341797,0.125-0.0776367,0.1904297-0.1328125
		C19.0419922,16.9819336,19.5,14.543457,19.5,10.5C19.5,2.409668,13.2519531,2,12,2z"/>
	<path fill="#333333" d="M15.5,13.5c-0.5517578,0-1,0.4487305-1,1s0.4482422,1,1,1s1-0.4487305,1-1S16.0517578,13.5,15.5,13.5z"/>
	<path fill="#F7C214" d="M18.9502563,6.8342896L12,9.5L5.0497437,6.8342896C4.7086792,7.8369141,4.5,9.0395508,4.5,10.5
		c0,0.9014282,0.0264282,1.7102051,0.0717773,2.451355C4.8687134,12.7532349,6.0588989,12,7,12c1.083313,0,5,3,5,3s3.916687-3,5-3
		c0.9411011,0,2.1312866,0.7532349,2.4282227,0.951355C19.4735718,12.2102051,19.5,11.4014282,19.5,10.5
		C19.5,9.0395508,19.2913208,7.8369141,18.9502563,6.8342896z"/>
	<g>
		<path opacity="0.16" fill="#303C42" d="M19.4282227,12.701355C19.1312866,12.5032349,17.9411011,11.75,17,11.75
			c-1.083313,0-5,3-5,3s-3.916687-3-5-3c-0.9411011,0-2.1312866,0.7532349-2.4282227,0.951355
			c-0.0422363-0.6898804-0.0657959-1.446167-0.0691528-2.2733765C4.5025024,10.4529419,4.5,10.4749146,4.5,10.5
			c0,0.9014282,0.0264282,1.7102051,0.0717773,2.451355C4.8687134,12.7532349,6.0588989,12,7,12c1.083313,0,5,3,5,3s3.916687-3,5-3
			c0.9411011,0,2.1312866,0.7532349,2.4282227,0.951355C19.4735718,12.2102051,19.5,11.4014282,19.5,10.5
			c0-0.0250854-0.0025024-0.0470581-0.0026245-0.0720215C19.4940186,11.255188,19.470459,12.0114746,19.4282227,12.701355z"/>
	</g>
	<path fill="#86BACF" d="M5.0497437,6.8342896L10,9L9.1896973,2.5177612
		C7.6408081,3.0921021,5.9107056,4.3031006,5.0497437,6.8342896z"/>
	<path opacity="0.1" fill="#010101" d="M18.1386719,17.4970703c-0.0654297,0.0551758-0.1289063,0.0986328-0.1904297,0.1328125
		c-0.0703125,0.4628906-0.2041016,1.3193359-0.2861328,1.6801758C17.1386719,21.6333008,14.4394531,23.75,12,23.75
		s-5.1386719-2.1166992-5.6621094-4.440918c-0.0820313-0.3598633-0.2158203-1.2163086-0.2861328-1.6791992
		c-0.0615234-0.0341797-0.125-0.0776367-0.1904297-0.1328125c-0.8882446-0.7523804-1.3434448-3.1314697-1.3584595-7.0549316
		C4.5028076,10.4625244,4.5,10.4794922,4.5,10.5c0,4.043457,0.4580078,6.4819336,1.3613281,7.2470703
		c0.0654297,0.0551758,0.1289063,0.0986328,0.1904297,0.1328125c0.0703125,0.4628906,0.2041016,1.3193359,0.2861328,1.6791992
		C6.8613281,21.8833008,9.5605469,24,12,24s5.1386719-2.1166992,5.6621094-4.4399414
		c0.0820313-0.3608398,0.2158203-1.2172852,0.2861328-1.6801758c0.0615234-0.0341797,0.125-0.0776367,0.1904297-0.1328125
		C19.0419922,16.9819336,19.5,14.543457,19.5,10.5c0-0.0205078-0.0028076-0.0374756-0.0028687-0.0578613
		C19.4821167,14.3656006,19.0269165,16.7446899,18.1386719,17.4970703z"/>
	<path fill="#333333" d="M8.5,13.5c-0.5517578,0-1,0.4487305-1,1s0.4482422,1,1,1s1-0.4487305,1-1S9.0517578,13.5,8.5,13.5z"/>
	<path fill="#86BACF" d="M18.9502563,6.8342896L14,9l0.8103027-6.4822388
		C16.3591919,3.0921021,18.0892944,4.3031006,18.9502563,6.8342896z"/>
	<g>
		<linearGradient id="SVGID_1_" gradientUnits="userSpaceOnUse" x1="10.8057451" y1="6.4518304" x2="19.536871" y2="15.1829567">
			<stop  offset="0" style="stop-color:#010101;stop-opacity:0.1"/>
			<stop  offset="1" style="stop-color:#010101;stop-opacity:0"/>
		</linearGradient>
		<path fill="url(#SVGID_1_)" d="M13.861084,2.2315063L12,16.5l4.8250122,4.8250122
			c0.399353-0.5513306,0.6983032-1.1489258,0.8370972-1.7649536c0.0820313-0.3608398,0.2158203-1.2172852,0.2861328-1.6801758
			c0.0615234-0.0341797,0.125-0.0776367,0.1904297-0.1328125C19.0419922,16.9819336,19.5,14.543457,19.5,10.5
			C19.5,4.5692749,16.1468506,2.7716675,13.861084,2.2315063z"/>
	</g>
	<path fill="#FED900" d="M12,2c-0.4554443,0-1.5738525,0.0593262-2.8103027,0.5177612L10,9l2,7.5L14,9l0.8103027-6.4822388
		C13.5738525,2.0593262,12.4554443,2,12,2z"/>
	<path opacity="0.1" fill="#010101" d="M12,16.5L14,9l0.8103027-6.4822388C13.5738525,2.0593262,12.4554443,2,12,2V16.5z"/>
	<path opacity="0.2" fill="#FFFFFF" d="M12,2.25c1.2487793,0,7.4656372,0.4110718,7.4971313,8.4421387
		C19.4973755,10.6256714,19.5,10.5673828,19.5,10.5C19.5,2.409668,13.2519531,2,12,2s-7.5,0.409668-7.5,8.5
		c0,0.0673828,0.0026245,0.1256714,0.0028687,0.1921387C4.5343628,2.6610718,10.7512207,2.25,12,2.25z"/>
	<path fill="#F9C612" d="M17.3690052,18.3514595L16.5,24c0,0,5.5-6,5.5-17c0-5-3-7-3-7s1.21875,7.269784-0.1136475,13.5177002
		c-0.203886,2.4319382-0.6467056,3.380867-0.9773426,3.7499218C17.6321754,17.576622,17.4320908,17.9414139,17.3690052,18.3514595z"
		/>
	<path fill="#F9C612" d="M6.6309938,18.3514595L7.5,24C7.5,24,2,18,2,7c0-5,3-7,3-7S3.78125,7.269784,5.1136475,13.5177002
		c0.2038865,2.4319382,0.6467052,3.380867,0.9773431,3.7499218C6.3678246,17.576622,6.5679097,17.9414139,6.6309938,18.3514595z"/>
	<path opacity="0.2" fill="#FFFFFF" d="M21.9957886,7.1369019C21.9959717,7.0900879,22,7.0469971,22,7c0-5-3-7-3-7
		s0.0172119,0.1051025,0.0431519,0.2808228C19.3977051,0.5389404,21.9526978,2.5628052,21.9957886,7.1369019z"/>
	<path opacity="0.1" fill="#010101" d="M16.5465698,23.6971436L16.5,24c0,0,5.5-6,5.5-17
		c0-0.0391235-0.0038452-0.0743408-0.0042114-0.1130981C21.951416,17.2807617,17.0152588,23.1625366,16.5465698,23.6971436z"/>
	<path opacity="0.2" fill="#FFFFFF" d="M4.9568481,0.2808228C4.9827881,0.1051025,5,0,5,0S2,2,2,7
		c0,0.0469971,0.0040283,0.0900879,0.0042114,0.1369019C2.0473022,2.5628052,4.6022949,0.5389404,4.9568481,0.2808228z"/>
	<path opacity="0.1" fill="#010101" d="M2.0042114,6.8869019C2.0038452,6.9256592,2,6.9608765,2,7c0,11,5.5,17,5.5,17
		l-0.0465698-0.3028564C6.9847412,23.1625366,2.048584,17.2807617,2.0042114,6.8869019z"/>
	<linearGradient id="SVGID_2_" gradientUnits="userSpaceOnUse" x1="1.1829098" y1="6.3730235" x2="21.1000214" y2="15.6605253">
		<stop  offset="0" style="stop-color:#FFFFFF;stop-opacity:0.2"/>
		<stop  offset="1" style="stop-color:#FFFFFF;stop-opacity:0"/>
	</linearGradient>
	<path fill="url(#SVGID_2_)" d="M22,7c0-5-3-7-3-7s0.7258301,4.3604126,0.4372559,9.2279663C18.8134155,2.3737793,13.182312,2,12,2
		S5.1865845,2.3737793,4.5627441,9.2279663C4.2741699,4.3604126,5,0,5,0S2,2,2,7c0,11,5.5,17,5.5,17l-0.4351196-2.8283081
		C8.1503296,22.7771606,10.1472778,24,12,24c1.8526001,0,3.8495483-1.2227783,4.9350586-2.8276978L16.5,24C16.5,24,22,18,22,7z"/>
</g>
<g>
</g>
<g>
</g>
<g>
</g>
<g>
</g>
<g>
</g>
<g>
</g>
<g>
</g>
<g>
</g>
<g>
</g>
<g>
</g>
<g>
</g>
<g>
</g>
<g>
</g>
<g>
</g>
<g>
</g>
</svg>
